<svg width="17" height="18" viewBox="0 0 17 18" fill="none" xmlns="http://www.w3.org/2000/svg"> <path d="M9.62646 9.58467C10.2859 8.66152 11.6701 8.69864 12.2788 9.65596L14.9487 13.8542L13.936 14.4987L11.2661 10.2995C11.1139 10.0603 10.7678 10.0512 10.603 10.2819L8.71533 12.9255L8.22705 12.5759L7.73877 12.2272L9.62646 9.58467Z" fill="currentColor"/> <path d="M4.7251 10.8112C5.32876 10.2604 6.25034 10.2535 6.86279 10.7946L10.5474 14.0495L10.1499 14.4987L9.75244 14.9489L6.06885 11.6931C5.91571 11.5578 5.68459 11.5602 5.53369 11.6979L2.3042 14.6462L1.8999 14.2028L1.49561 13.7604L4.7251 10.8112Z" fill="currentColor"/> <path d="M7.84377 7.60965C7.84377 8.14569 7.40053 8.58024 6.85377 8.58024C6.30701 8.58024 5.86377 8.14569 5.86377 7.60965C5.86377 7.07361 6.30701 6.63906 6.85377 6.63906C7.40053 6.63906 7.84377 7.07361 7.84377 7.60965Z" fill="currentColor"/> <path d="M10.6997 2.90039C11.0311 2.90039 11.3003 3.16863 11.3003 3.5C11.3003 3.83137 11.0311 4.09961 10.6997 4.09961H2.49951V13.9004H14.4995V7.90039C14.4995 7.56902 14.7687 7.2998 15.1001 7.2998C15.4314 7.29991 15.6997 7.56908 15.6997 7.90039V15.0996H1.30029V2.90039H10.6997Z" fill="currentColor"/> <path d="M15.0987 4.46631C15.3748 4.46645 15.5987 4.69025 15.5987 4.96631C15.5987 5.24236 15.3748 5.46617 15.0987 5.46631H12.1651C11.889 5.46631 11.6651 5.24245 11.6651 4.96631C11.6651 4.69017 11.889 4.46631 12.1651 4.46631H15.0987Z" fill="currentColor"/> <path d="M13.1347 6.43359V3.5C13.1347 3.22386 13.3585 3 13.6347 3C13.9108 3 14.1347 3.22386 14.1347 3.5V6.43359C14.1345 6.70962 13.9107 6.93359 13.6347 6.93359C13.3586 6.93359 13.1348 6.70962 13.1347 6.43359Z" fill="currentColor"/> </svg>
