<svg width="16" height="16" viewBox="0 0 18 18" fill="none" xmlns="http://www.w3.org/2000/svg"> <path d="M14.5176 4.23535C14.8489 4.23535 15.1172 4.50359 15.1172 4.83496C15.1172 5.16633 14.8489 5.43457 14.5176 5.43457H3.48242C3.15105 5.43457 2.88281 5.16633 2.88281 4.83496C2.88281 4.50359 3.15105 4.23535 3.48242 4.23535H14.5176Z" fill="currentColor"/> <path d="M14.5176 8.40014C14.8489 8.40014 15.1172 8.66838 15.1172 8.99975C15.1172 9.33112 14.8489 9.59936 14.5176 9.59936H3.48242C3.15105 9.59936 2.88281 9.33112 2.88281 8.99975C2.88281 8.66838 3.15105 8.40014 3.48242 8.40014H14.5176Z" fill="currentColor"/> <path d="M14.5176 12.5649C14.8489 12.5649 15.1172 12.8332 15.1172 13.1645C15.1172 13.4959 14.8489 13.7641 14.5176 13.7641H3.48242C3.15105 13.7641 2.88281 13.4959 2.88281 13.1645C2.88281 12.8332 3.15105 12.5649 3.48242 12.5649H14.5176Z" fill="currentColor"/> </svg>
