<!-- Component Set: calendar -->
<!-- calendar.svg -->
<svg width="18" height="18" viewBox="0 0 18 18" fill="none" xmlns="http://www.w3.org/2000/svg"> <path d="M4.51765 5.20129V3.65247C4.51765 3.32109 4.78589 3.05286 5.11726 3.05286C5.44863 3.05286 5.71687 3.32109 5.71687 3.65247V5.20129C5.71675 5.53257 5.44856 5.8009 5.11726 5.8009C4.78596 5.8009 4.51777 5.53257 4.51765 5.20129Z" fill="currentColor"/> <path d="M12.2759 5.20129V3.65247C12.2759 3.32109 12.5441 3.05286 12.8755 3.05286C13.2069 3.05286 13.4751 3.32109 13.4751 3.65247V5.20129C13.475 5.53257 13.2068 5.8009 12.8755 5.8009C12.5442 5.8009 12.276 5.53257 12.2759 5.20129Z" fill="currentColor"/> <path d="M14.5558 6.54859C14.887 6.54871 15.1554 6.8169 15.1554 7.1482C15.1554 7.4795 14.887 7.74769 14.5558 7.74781H3.44444C3.11307 7.74781 2.84484 7.47957 2.84484 7.1482C2.84484 6.81683 3.11307 6.54859 3.44444 6.54859H14.5558Z" fill="currentColor"/> <path d="M15.25 3.93097V14.348H2.75V3.93097H15.25ZM3.9502 13.1478H14.0498V5.13116H3.9502V13.1478Z" fill="currentColor"/> </svg>
