<svg width="18" height="18" viewBox="0 0 18 18" fill="none" xmlns="http://www.w3.org/2000/svg">
  <path d="M13.8167 12.3337C13.8167 11.4685 13.1154 10.7665 12.2503 10.7663C11.3851 10.7663 10.6829 11.4684 10.6829 12.3337C10.6831 13.1988 11.3852 13.9001 12.2503 13.9001V14.9997L11.9769 14.986C10.7221 14.8583 9.7245 13.8609 9.59701 12.6061L9.58333 12.3337C9.58333 10.8609 10.7776 9.66667 12.2503 9.66667L12.5228 9.68034C13.8674 9.81696 14.9163 10.953 14.9163 12.3337L14.9027 12.6061C14.766 13.9506 13.6308 14.9995 12.2503 14.9997V13.9001C13.1153 13.8999 13.8166 13.1986 13.8167 12.3337Z" fill="currentColor"/>
  <path d="M8.25 10V15H3.25V10H8.25ZM4.34961 13.9004H7.15039V11.0996H4.34961V13.9004Z" fill="currentColor"/>
  <path d="M12.3805 9H5.4528L8.91667 3L12.3805 9ZM7.3571 7.90039H10.4762L8.91667 5.19824L7.3571 7.90039Z" fill="currentColor"/>
</svg>
