<svg width="16" height="16" viewBox="0 0 18 18" fill="none" xmlns="http://www.w3.org/2000/svg"> <path d="M4.5737 4.57594C4.80782 4.34166 5.18791 4.34107 5.42233 4.57496L13.4282 12.5759C13.6624 12.8102 13.6624 13.1902 13.4282 13.4246C13.1939 13.6586 12.8138 13.6587 12.5796 13.4246L4.57467 5.42457C4.34039 5.19045 4.33981 4.81036 4.5737 4.57594Z" fill="currentColor"/> <path d="M12.5747 4.57594C12.809 4.34162 13.189 4.34162 13.4233 4.57594C13.6571 4.81016 13.6571 5.18937 13.4233 5.4236L5.42233 13.4246C5.18811 13.6584 4.80889 13.6584 4.57467 13.4246C4.34036 13.1903 4.34036 12.8103 4.57467 12.5759L12.5747 4.57594Z" fill="currentColor"/> </svg>
