<svg width="16" height="16" viewBox="0 0 18 18" fill="none" xmlns="http://www.w3.org/2000/svg"> <path d="M3.50897 10.8998C3.50897 10.5684 3.77721 10.3002 4.10858 10.3002C4.43995 10.3002 4.70819 10.5684 4.70819 10.8998V13.2953H13.2922V10.8998C13.2922 10.5684 13.5614 10.3002 13.8928 10.3002C14.2241 10.3003 14.4924 10.5685 14.4924 10.8998V14.4945H3.50897V10.8998Z" fill="currentColor"/> <path d="M11.5912 7.14451C11.8246 6.90927 12.2046 6.9082 12.4398 7.14158C12.675 7.37495 12.6771 7.75496 12.4437 7.99021L9.05212 11.4082L5.66052 7.99021C5.42721 7.75504 5.42842 7.37498 5.66345 7.14158C5.89862 6.90827 6.27868 6.90948 6.51208 7.14451L9.05114 9.70408L11.5912 7.14451Z" fill="currentColor"/> <path d="M8.44972 10.5274V4.10556C8.44972 3.77419 8.71796 3.50595 9.04933 3.50595C9.3807 3.50595 9.64894 3.77419 9.64894 4.10556V10.5274C9.64894 10.8588 9.3807 11.128 9.04933 11.128C8.71796 11.128 8.44972 10.8588 8.44972 10.5274Z" fill="currentColor"/> </svg>
