<svg width="12" height="12" viewBox="0 0 12 12" fill="none" xmlns="http://www.w3.org/2000/svg"> <path d="M9.61234 1.60571C9.82993 1.39415 10.1779 1.39913 10.3897 1.61645C10.6015 1.83413 10.5976 2.18292 10.3799 2.39478L5.98733 6.66919C5.76965 6.88104 5.42087 6.87613 5.20901 6.65845C4.99746 6.44084 5.00242 6.09291 5.21976 5.8811L9.61234 1.60571Z" fill="currentColor"/> <path d="M9.45049 5.66626V2.55005H6.16826C5.8645 2.55005 5.61846 2.304 5.61846 2.00024C5.61846 1.69649 5.8645 1.45044 6.16826 1.45044H10.5501V5.66626C10.5501 5.97002 10.304 6.21606 10.0003 6.21606C9.69658 6.21602 9.45049 5.96999 9.45049 5.66626Z" fill="currentColor"/> <path d="M4.33203 2.49621C4.6356 2.49643 4.88184 2.74239 4.88184 3.04601C4.88184 3.34963 4.6356 3.5956 4.33203 3.59582H2.55078V9.44933H8.4502V7.73644C8.4502 7.43281 8.69642 7.18685 9 7.18664C9.30376 7.18664 9.55078 7.43269 9.55078 7.73644V10.5499H1.45117V2.49621H4.33203Z" fill="currentColor"/> </svg>
