<svg width="16" height="16" viewBox="0 0 18 18" fill="none" xmlns="http://www.w3.org/2000/svg"> <path d="M2.11002 12.7603C1.77865 12.7603 1.50943 12.4921 1.50943 12.1607C1.50943 11.8293 1.77864 11.5611 2.11002 11.5611L7.37857 11.5611C7.70994 11.5611 7.97818 11.8293 7.97818 12.1607C7.97818 12.4921 7.70994 12.7603 7.37857 12.7603H2.11002Z" fill="currentColor"/> <path d="M12.4492 12.763V11.5638H15.8926C16.224 11.5638 16.4922 11.832 16.4922 12.1634C16.4922 12.4948 16.224 12.763 15.8926 12.763H12.4492Z" fill="currentColor"/> <path d="M10.3447 6.4391C10.0135 6.43889 9.74513 6.17073 9.74513 5.83949C9.74513 5.50825 10.0135 5.24009 10.3447 5.23988H15.8926C16.224 5.23988 16.4922 5.50812 16.4922 5.83949C16.4922 6.17086 16.224 6.4391 15.8926 6.4391H10.3447Z" fill="currentColor"/> <path d="M11.848 12.1623C11.8478 11.661 11.4409 11.255 10.9398 11.255C10.4388 11.2551 10.0327 11.6611 10.0326 12.1623C10.0326 12.6636 10.4387 13.0704 10.9398 13.0705V14.2707L10.7249 14.2589C9.66197 14.1512 8.83236 13.2537 8.83236 12.1623C8.83253 10.9984 9.77597 10.0549 10.9398 10.0548C12.1037 10.0548 13.047 10.9983 13.0472 12.1623C13.0472 13.3263 12.1038 14.2707 10.9398 14.2707V13.0705C11.441 13.0705 11.848 12.6637 11.848 12.1623Z" fill="currentColor"/> <path d="M4.81727 5.2381L4.81727 6.43731L2.10926 6.43731C1.77789 6.43731 1.50965 6.16908 1.50965 5.8377C1.50965 5.50633 1.77789 5.23809 2.10926 5.23809L4.81727 5.2381Z" fill="currentColor"/> <path d="M5.74538 5.83706C5.74555 6.33832 6.1525 6.74429 6.65358 6.74429C7.15458 6.74419 7.56064 6.33825 7.56081 5.83706C7.56081 5.33573 7.15469 4.92896 6.65358 4.92886V3.72866L6.86843 3.74038C7.9314 3.84813 8.76101 4.74561 8.76101 5.83706C8.76084 7.00093 7.81739 7.94439 6.65358 7.94448C5.48969 7.94448 4.54633 7.00099 4.54616 5.83706C4.54616 4.67299 5.48959 3.72866 6.65358 3.72866V4.92886C6.1524 4.92886 5.74538 5.33567 5.74538 5.83706Z" fill="currentColor"/> </svg>
