<svg width="16" height="16" viewBox="0 0 18 18" fill="none" xmlns="http://www.w3.org/2000/svg"> <path d="M7.65884 2.38425C8.95909 2.12072 10.3082 2.2462 11.5375 2.74501C12.7668 3.24382 13.8219 4.09383 14.571 5.18885C15.32 6.28387 15.7297 7.57534 15.7489 8.90189C15.7681 10.2284 15.3961 11.5313 14.6791 12.6475C13.9622 13.7638 12.9321 14.644 11.7177 15.1782C10.5034 15.7125 9.15851 15.8771 7.85117 15.6513C6.54383 15.4256 5.33198 14.8196 4.36707 13.9091C4.14113 13.6959 4.13081 13.3399 4.34399 13.114C4.5572 12.888 4.91325 12.8777 5.1392 13.0909C5.94329 13.8496 6.95317 14.3546 8.04261 14.5427C9.13205 14.7308 10.2528 14.5937 11.2648 14.1485C12.2767 13.7033 13.135 12.9697 13.7325 12.0395C14.3299 11.1093 14.6401 10.0237 14.624 8.91823C14.608 7.81277 14.2666 6.73651 13.6424 5.824C13.0182 4.91148 12.139 4.20315 11.1145 3.78748C10.0901 3.3718 8.96582 3.26719 7.88228 3.48679C6.79937 3.70627 5.80506 4.23982 5.0235 5.02083C4.46774 5.58374 3.97748 6.12545 3.44744 6.75001H5.0625C5.37316 6.75001 5.625 7.00185 5.625 7.31251C5.625 7.62317 5.37316 7.87501 5.0625 7.87501H2.25C1.93934 7.87501 1.6875 7.62317 1.6875 7.31251V4.50001C1.6875 4.18935 1.93934 3.93751 2.25 3.93751C2.56066 3.93751 2.8125 4.18935 2.8125 4.50001V5.76192C3.27548 5.22552 3.72363 4.73619 4.22417 4.22926L4.22672 4.22672C5.16483 3.28863 6.3586 2.64777 7.65884 2.38425ZM8.4375 5.62501C8.4375 5.31435 8.68934 5.06251 9 5.06251C9.31066 5.06251 9.5625 5.31435 9.5625 5.62501V8.68147L12.1019 10.2051C12.3683 10.365 12.4547 10.7105 12.2949 10.9769C12.135 11.2433 11.7895 11.3297 11.5231 11.1699L8.71058 9.48238C8.54115 9.38072 8.4375 9.19759 8.4375 9.00001V5.62501Z" fill="currentColor"/> </svg>
