<svg width="16" height="16" viewBox="0 0 18 18" fill="none" xmlns="http://www.w3.org/2000/svg"> <path d="M3.50897 10.8998C3.50897 10.5684 3.77721 10.3002 4.10858 10.3002C4.43995 10.3002 4.70819 10.5684 4.70819 10.8998V13.2953H13.2922V10.8998C13.2922 10.5684 13.5614 10.3002 13.8928 10.3002C14.2241 10.3003 14.4924 10.5685 14.4924 10.8998V14.4945H3.50897V10.8998Z" fill="currentColor"/> <path d="M6.51267 7.76962C6.27928 8.00486 5.89928 8.00593 5.66403 7.77255C5.4288 7.53919 5.42678 7.15917 5.66013 6.92392L9.05173 3.50595L12.4433 6.92392C12.6766 7.15909 12.6754 7.53915 12.4404 7.77255C12.2052 8.00587 11.8252 8.00465 11.5918 7.76963L9.0527 5.21005L6.51267 7.76962Z" fill="currentColor"/> <path d="M9.65413 4.3867L9.65413 10.8086C9.65413 11.1399 9.38589 11.4082 9.05452 11.4082C8.72314 11.4082 8.45491 11.1399 8.45491 10.8086L8.45491 4.3867C8.45491 4.05532 8.72315 3.78611 9.05452 3.78611C9.38589 3.78611 9.65413 4.05532 9.65413 4.3867Z" fill="currentColor"/> </svg>
