<svg width="16" height="16" viewBox="0 0 18 18" fill="none" xmlns="http://www.w3.org/2000/svg"> <path d="M4.32232 9.24703L6.11351 7.45572C6.34781 7.2214 6.72714 7.2214 6.96145 7.45572C7.19576 7.69004 7.19576 8.0694 6.96145 8.30373L5.17027 10.095C4.41531 10.85 4.41538 12.0746 5.17027 12.8296C5.92526 13.5847 7.14969 13.5847 7.90469 12.8296L9.69587 11.0383C9.9301 10.8041 10.3095 10.8042 10.5438 11.0383C10.7781 11.2727 10.7788 11.6527 10.5445 11.887L8.75332 13.6783C7.52972 14.902 5.54524 14.902 4.32163 13.6783C3.09813 12.4546 3.09875 10.4707 4.32232 9.24703Z" fill="currentColor"/> <path d="M13.6781 8.75236L11.8869 10.5437C11.6526 10.778 11.2733 10.778 11.039 10.5437C10.8047 10.3093 10.8047 9.92998 11.039 9.69566L12.8301 7.90435C13.5851 7.14934 13.585 5.92479 12.8301 5.16974C12.0752 4.41469 10.8507 4.41469 10.0957 5.16974L8.30455 6.96105C8.07031 7.1953 7.69093 7.19516 7.4566 6.96105C7.2223 6.72672 7.22161 6.34667 7.45591 6.11235L9.2471 4.32104C10.4707 3.09735 12.4552 3.09735 13.6788 4.32104C14.9023 5.54474 14.9017 7.5287 13.6781 8.75236Z" fill="currentColor"/> <path d="M7.01063 10.1427L9.6974 7.45572C9.93171 7.2214 10.311 7.2214 10.5453 7.45572C10.7797 7.69004 10.7797 8.0694 10.5453 8.30373L7.85857 10.9907C7.62427 11.225 7.24425 11.2257 7.00994 10.9914C6.77563 10.7571 6.77632 10.377 7.01063 10.1427Z" fill="currentColor"/> </svg>
