<svg width="16" height="16" viewBox="0 0 18 18" fill="none" xmlns="http://www.w3.org/2000/svg"> <path d="M11.7151 5.4375C11.7149 5.76876 11.4467 6.03711 11.1154 6.03711C10.7842 6.03711 10.516 5.76876 10.5158 5.4375V4.09961L4.9465 4.09961L4.9465 13.9004H10.5158V12.4883C10.516 12.157 10.7842 11.8887 11.1154 11.8887C11.4467 11.8887 11.7149 12.157 11.7151 12.4883V15.0996H3.74631L3.74631 2.90039L11.7151 2.90039V5.4375Z" fill="currentColor"/> <path d="M9.44147 11.3437C9.66612 11.587 9.65141 11.9665 9.40827 12.1913C9.1649 12.416 8.78542 12.4013 8.56062 12.1581L5.64558 9.0009L8.56062 5.84367C8.78542 5.60053 9.1649 5.58582 9.40827 5.81047C9.65141 6.03527 9.66612 6.41475 9.44147 6.65812L7.27937 9.0009L9.44147 11.3437Z" fill="currentColor"/> <path d="M6.88463 8.40039H13.6542C13.9855 8.40039 14.2538 8.66863 14.2538 9C14.2538 9.33137 13.9855 9.59961 13.6542 9.59961H6.88463C6.55343 9.59942 6.28502 9.33125 6.28502 9C6.28502 8.66875 6.55343 8.40058 6.88463 8.40039Z" fill="currentColor"/> </svg>
