<svg width="16" height="16" viewBox="0 0 18 18" fill="none" xmlns="http://www.w3.org/2000/svg"> <path d="M10.1264 5.4375C10.1262 5.76876 9.85806 6.03711 9.52676 6.03711C9.19547 6.03711 8.92728 5.76876 8.92716 5.4375V4.09961L4.20352 4.09961L4.20352 13.9004H8.92715V12.4883C8.9273 12.157 9.19548 11.8887 9.52676 11.8887C9.85805 11.8887 10.1262 12.157 10.1264 12.4883V15.0996H3.00333L3.00333 2.90039L10.1264 2.90039V5.4375Z" fill="currentColor"/> <path d="M11.2008 6.65722C10.9761 6.41386 10.9909 6.03438 11.234 5.80957C11.4774 5.58491 11.8569 5.59962 12.0817 5.84277L14.9967 9L12.0817 12.1572C11.8569 12.4004 11.4774 12.4151 11.234 12.1904C10.9909 11.9656 10.9761 11.5861 11.2008 11.3428L13.3629 9L11.2008 6.65722Z" fill="currentColor"/> <path d="M13.7574 9.59961L6.98782 9.59961C6.65645 9.59961 6.38821 9.33137 6.38821 9C6.38821 8.66863 6.65645 8.40039 6.98782 8.40039L13.7574 8.40039C14.0887 8.40039 14.357 8.66863 14.357 9C14.357 9.33137 14.0887 9.59961 13.7574 9.59961Z" fill="currentColor"/> </svg>
