<svg width="16" height="16" viewBox="0 0 18 18" fill="none" xmlns="http://www.w3.org/2000/svg"> <path d="M11.3528 11.712C11.5906 11.4814 11.9707 11.487 12.2014 11.7247L14.9719 14.5822C15.2026 14.8201 15.1971 15.2001 14.9592 15.4308C14.7213 15.6615 14.3413 15.655 14.1106 15.4171L11.3401 12.5607C11.1095 12.3228 11.1151 11.9427 11.3528 11.712Z" fill="currentColor"/> <path d="M12.8323 8.14243C12.8321 5.61618 10.8509 3.59963 8.44556 3.59946C6.04003 3.59946 4.05801 5.61607 4.05786 8.14243C4.05786 10.6689 6.03995 12.6854 8.44556 12.6854C10.851 12.6852 12.8323 10.6688 12.8323 8.14243ZM14.0325 8.14243C14.0325 11.2965 11.5483 13.8854 8.44556 13.8856C5.34266 13.8856 2.85864 11.2966 2.85864 8.14243C2.85879 4.9884 5.34276 2.40024 8.44556 2.40024C11.5482 2.40041 14.0323 4.9885 14.0325 8.14243Z" fill="currentColor"/> </svg>
