<svg width="16" height="16" viewBox="0 0 18 18" fill="none" xmlns="http://www.w3.org/2000/svg"> <path d="M10.5 4.5C10.5 5.32843 9.82843 6 9 6C8.17157 6 7.5 5.32843 7.5 4.5C7.5 3.67157 8.17157 3 9 3C9.82843 3 10.5 3.67157 10.5 4.5Z" fill="currentColor"/> <path d="M10.5 9C10.5 9.82843 9.82843 10.5 9 10.5C8.17157 10.5 7.5 9.82843 7.5 9C7.5 8.17157 8.17157 7.5 9 7.5C9.82843 7.5 10.5 8.17157 10.5 9Z" fill="currentColor"/> <path d="M10.5 13.5C10.5 14.3284 9.82843 15 9 15C8.17157 15 7.5 14.3284 7.5 13.5C7.5 12.6716 8.17157 12 9 12C9.82843 12 10.5 12.6716 10.5 13.5Z" fill="currentColor"/> </svg>
