<svg width="16" height="16" viewBox="0 0 18 18" fill="none" xmlns="http://www.w3.org/2000/svg"> <path d="M2.74221 9.00246C2.7421 8.67125 3.01045 8.40207 3.3416 8.4017L14.6601 8.39824C14.9914 8.39824 15.2601 8.66701 15.2602 8.99832C15.26 9.32943 14.9913 9.59828 14.6601 9.59839L3.34298 9.60184C3.01177 9.60196 2.74259 9.33361 2.74221 9.00246Z" fill="currentColor"/> <path d="M8.39976 3.34492C8.39976 3.01354 8.66846 2.74484 8.99983 2.74484C9.33079 2.74512 9.59893 3.01327 9.59921 3.34423V14.6593C9.59893 14.9903 9.33079 15.2584 8.99983 15.2587C8.66846 15.2587 8.39976 14.99 8.39976 14.6586V3.34492Z" fill="currentColor"/> </svg>
