<svg width="16" height="16" viewBox="0 0 18 18" fill="none" xmlns="http://www.w3.org/2000/svg"> <path d="M12.2013 2.45C12.5049 2.45014 12.7511 2.69614 12.7511 2.9998V5.40019H11.6515V3.54961H6.35072V5.40019H5.25111V2.9998C5.25111 2.69605 5.49715 2.45 5.80091 2.45H12.2013Z" fill="currentColor"/> <path d="M15.9505 4.84964V12.3496H13.2669V11.2491H14.8499V5.94925H3.14969V11.2491H4.73367V12.3496H2.05008V4.84964H15.9505Z" fill="currentColor"/> <path d="M13.0006 8.85012C13.3044 8.85012 13.5504 9.09616 13.5504 9.39992V14.9995C13.5504 15.3033 13.3044 15.5503 13.0006 15.5503H5.00059C4.69684 15.5503 4.45079 15.3033 4.45079 14.9995V9.39992C4.45079 9.09616 4.69684 8.85012 5.00059 8.85012H13.0006ZM5.5504 14.4497H12.4508V9.94973H5.5504V14.4497Z" fill="currentColor"/> <path d="M11.1339 11.0338C11.4101 11.0338 11.6339 11.2576 11.6339 11.5338C11.6339 11.8099 11.4101 12.0338 11.1339 12.0338H6.86732C6.59117 12.0338 6.36732 11.8099 6.36732 11.5338C6.36732 11.2576 6.59117 11.0338 6.86732 11.0338H11.1339Z" fill="currentColor"/> <path d="M11.1339 12.632C11.4101 12.632 11.6339 12.8559 11.6339 13.132C11.6339 13.4082 11.4101 13.632 11.1339 13.632H6.86732C6.59117 13.632 6.36732 13.4082 6.36732 13.132C6.36732 12.8559 6.59117 12.632 6.86732 12.632H11.1339Z" fill="currentColor"/> </svg>
