<svg width="18" height="18" viewBox="0 0 18 18" fill="none" xmlns="http://www.w3.org/2000/svg">
<path d="M12.5257 9.0011C12.5257 7.05442 10.9477 5.47467 9.0011 5.47427C7.05418 5.47427 5.47427 7.05417 5.47427 9.0011C5.47467 10.9477 7.05442 12.5257 9.0011 12.5257V15L8.38583 14.9692C5.56242 14.682 3.31764 12.4377 3.03076 9.61417L3 9.0011C3 5.68719 5.68719 3 9.0011 3L9.61417 3.03076C12.6398 3.33817 15 5.8944 15 9.0011L14.9692 9.61417C14.6618 12.6395 12.1074 14.9996 9.0011 15V12.5257C10.9474 12.5253 12.5253 10.9474 12.5257 9.0011Z" fill="currentColor"/>
</svg>
