<svg width="16" height="16" viewBox="0 0 18 18" fill="none" xmlns="http://www.w3.org/2000/svg"> <path d="M10.5723 3H7.5332V4.33984C6.78711 4.57412 6.11838 4.98257 5.57422 5.51758L4.49512 4.90234L2.97559 7.5L4.18164 8.1875C4.13737 8.45178 4.1133 8.72315 4.11328 9C4.11328 9.4039 4.16344 9.7965 4.25586 10.1719L2.97754 10.9014L4.49609 13.5L5.8457 12.7295C6.3352 13.1437 6.90669 13.4634 7.5332 13.6602V15H10.5723V13.623C11.1559 13.4244 11.6896 13.1194 12.1504 12.7295L13.502 13.5L15.0215 10.9023L13.7393 10.1709C13.8316 9.79574 13.8828 9.40365 13.8828 9C13.8828 8.72342 13.8577 8.45251 13.8135 8.18848L15.0234 7.5L13.5039 4.90137L12.4219 5.51758C11.9045 5.00887 11.2744 4.61491 10.5723 4.37598V3ZM11.6719 3.64844C11.9784 3.80177 12.2695 3.98023 12.543 4.18164L12.96 3.94531L13.9043 3.40723L16.5352 7.90527L14.9775 8.79102C14.9801 8.86018 14.9824 8.92986 14.9824 9L14.9717 9.36914C14.9669 9.44521 14.9578 9.52056 14.9502 9.5957L16.5322 10.498L13.9023 14.9941L12.2236 14.0381C12.0459 14.152 11.8618 14.2566 11.6719 14.3516V16.0996H6.43359V14.4053C6.20425 14.2962 5.98337 14.1732 5.77148 14.0371L4.0957 14.9951L1.4668 10.4971L2.43262 9.94629L3.04492 9.5957C3.02529 9.39979 3.01367 9.20118 3.01367 9L3.01758 8.79004L2.43066 8.45605L1.46484 7.9043L4.09473 3.4082L5.45312 4.18164C5.75891 3.95635 6.08678 3.75951 6.43359 3.59473V1.90039H11.6719V3.64844Z" fill="currentColor"/> <path d="M11.3563 9.00014C11.3562 7.76778 10.419 6.75391 9.21856 6.63197L8.9754 6.61928C7.66079 6.61928 6.59456 7.68549 6.59454 9.00014C6.59454 10.3148 7.66075 11.381 8.9754 11.381V12.4806C7.05324 12.4806 5.49493 10.9223 5.49493 9.00014C5.49496 7.078 7.05325 5.51967 8.9754 5.51967C10.8974 5.51982 12.4558 7.07809 12.4559 9.00014C12.4559 10.9222 10.8974 12.4805 8.9754 12.4806V11.381C10.29 11.3808 11.3563 10.3146 11.3563 9.00014Z" fill="currentColor"/> </svg>
