<svg width="16" height="16" viewBox="0 0 18 18" fill="none" xmlns="http://www.w3.org/2000/svg"> <path d="M6.67712 8.64189C6.67712 8.03876 6.18812 7.55019 5.58533 7.55009C4.98244 7.55009 4.49354 8.03869 4.49353 8.64189C4.49353 9.24508 4.98244 9.73368 5.58533 9.73368V10.9339L5.35095 10.9222C4.19523 10.8049 3.29333 9.82866 3.29333 8.64189C3.29334 7.37605 4.3196 6.34989 5.58533 6.34989L5.8197 6.36161C6.97524 6.47909 7.87731 7.45525 7.87732 8.64189L7.86462 8.87626C7.74724 10.0319 6.77184 10.9338 5.58533 10.9339V9.73368C6.18813 9.73358 6.67712 9.24502 6.67712 8.64189Z" fill="currentColor"/> <path d="M13.5047 5.07712C13.5047 4.474 13.0157 3.98543 12.4129 3.98533C11.81 3.98533 11.3211 4.47393 11.3211 5.07712C11.3211 5.68032 11.81 6.16892 12.4129 6.16892V7.36912L12.1785 7.3574C11.0228 7.24009 10.1209 6.2639 10.1209 5.07712C10.1209 3.81129 11.1471 2.78513 12.4129 2.78513L12.6472 2.79685C13.8028 2.91433 14.7049 3.89048 14.7049 5.07712L14.6922 5.3115C14.5748 6.46716 13.5994 7.36902 12.4129 7.36912V6.16892C13.0157 6.16882 13.5047 5.68026 13.5047 5.07712Z" fill="currentColor"/> <path d="M13.5047 12.9225C13.5047 12.3194 13.0157 11.8308 12.4129 11.8307C11.81 11.8307 11.3211 12.3193 11.3211 12.9225C11.3211 13.5257 11.81 14.0143 12.4129 14.0143V15.2145L12.1785 15.2028C11.0228 15.0855 10.1209 14.1093 10.1209 12.9225C10.1209 11.6567 11.1471 10.6305 12.4129 10.6305L12.6472 10.6422C13.8028 10.7597 14.7049 11.7359 14.7049 12.9225L14.6922 13.1569C14.5748 14.3125 13.5994 15.2144 12.4129 15.2145V14.0143C13.0157 14.0142 13.5047 13.5256 13.5047 12.9225Z" fill="currentColor"/> <path d="M7.50212 8.79047L6.86021 7.77636L10.4354 5.51293L11.0773 6.52704L7.50212 8.79047Z" fill="currentColor"/> <path d="M6.82323 10.1394L7.57294 9.20219L11.1386 12.055L10.3889 12.9922L6.82323 10.1394Z" fill="currentColor"/> </svg>
