<!-- Component Set: plus -->
<!-- 24x24-plus.svg -->
<svg width="24" height="24" viewBox="0 0 24 24" fill="none" xmlns="http://www.w3.org/2000/svg"> <path d="M4 12H20" stroke="currentColor" stroke-width="1.2" stroke-linecap="round"/> <path d="M12 20V4" stroke="currentColor" stroke-width="1.2" stroke-linecap="round"/> </svg>

<!-- 18x18-plus.svg -->
<svg width="16" height="16" viewBox="0 0 18 18" fill="none" xmlns="http://www.w3.org/2000/svg"> <path d="M3 9H15" stroke="currentColor" stroke-width="1.15" stroke-linecap="round"/> <path d="M9 15V3" stroke="currentColor" stroke-width="1.15" stroke-linecap="round"/> </svg>

<!-- Component Set: minus -->
<!-- 24x24-minus.svg -->
<svg width="24" height="24" viewBox="0 0 24 24" fill="none" xmlns="http://www.w3.org/2000/svg"> <path d="M4 12H20" stroke="currentColor" stroke-width="1.2" stroke-linecap="round"/> </svg>

<!-- 18x18-minus.svg -->
<svg width="16" height="16" viewBox="0 0 18 18" fill="none" xmlns="http://www.w3.org/2000/svg"> <path d="M3 9H15" stroke="currentColor" stroke-width="1.15" stroke-linecap="round"/> </svg>

<!-- Component Set: search -->
<!-- 18x18-minus.svg -->
<svg width="16" height="16" viewBox="0 0 18 18" fill="none" xmlns="http://www.w3.org/2000/svg"> <path d="M11.3528 11.712C11.5906 11.4814 11.9707 11.487 12.2014 11.7247L14.9719 14.5822C15.2026 14.8201 15.1971 15.2001 14.9592 15.4308C14.7213 15.6615 14.3413 15.655 14.1106 15.4171L11.3401 12.5607C11.1095 12.3228 11.1151 11.9427 11.3528 11.712Z" fill="currentColor"/> <path d="M12.8323 8.14243C12.8321 5.61618 10.8509 3.59963 8.44556 3.59946C6.04003 3.59946 4.05801 5.61607 4.05786 8.14243C4.05786 10.6689 6.03995 12.6854 8.44556 12.6854C10.851 12.6852 12.8323 10.6688 12.8323 8.14243ZM14.0325 8.14243C14.0325 11.2965 11.5483 13.8854 8.44556 13.8856C5.34266 13.8856 2.85864 11.2966 2.85864 8.14243C2.85879 4.9884 5.34276 2.40024 8.44556 2.40024C11.5482 2.40041 14.0323 4.9885 14.0325 8.14243Z" fill="currentColor"/> </svg>

<!-- Component Set: filter -->
<!-- filter.svg -->
<svg width="16" height="16" viewBox="0 0 18 18" fill="none" xmlns="http://www.w3.org/2000/svg"> <path d="M2.11002 12.7603C1.77865 12.7603 1.50943 12.4921 1.50943 12.1607C1.50943 11.8293 1.77864 11.5611 2.11002 11.5611L7.37857 11.5611C7.70994 11.5611 7.97818 11.8293 7.97818 12.1607C7.97818 12.4921 7.70994 12.7603 7.37857 12.7603H2.11002Z" fill="currentColor"/> <path d="M12.4492 12.763V11.5638H15.8926C16.224 11.5638 16.4922 11.832 16.4922 12.1634C16.4922 12.4948 16.224 12.763 15.8926 12.763H12.4492Z" fill="currentColor"/> <path d="M10.3447 6.4391C10.0135 6.43889 9.74513 6.17073 9.74513 5.83949C9.74513 5.50825 10.0135 5.24009 10.3447 5.23988H15.8926C16.224 5.23988 16.4922 5.50812 16.4922 5.83949C16.4922 6.17086 16.224 6.4391 15.8926 6.4391H10.3447Z" fill="currentColor"/> <path d="M11.848 12.1623C11.8478 11.661 11.4409 11.255 10.9398 11.255C10.4388 11.2551 10.0327 11.6611 10.0326 12.1623C10.0326 12.6636 10.4387 13.0704 10.9398 13.0705V14.2707L10.7249 14.2589C9.66197 14.1512 8.83236 13.2537 8.83236 12.1623C8.83253 10.9984 9.77597 10.0549 10.9398 10.0548C12.1037 10.0548 13.047 10.9983 13.0472 12.1623C13.0472 13.3263 12.1038 14.2707 10.9398 14.2707V13.0705C11.441 13.0705 11.848 12.6637 11.848 12.1623Z" fill="currentColor"/> <path d="M4.81727 5.2381L4.81727 6.43731L2.10926 6.43731C1.77789 6.43731 1.50965 6.16908 1.50965 5.8377C1.50965 5.50633 1.77789 5.23809 2.10926 5.23809L4.81727 5.2381Z" fill="currentColor"/> <path d="M5.74538 5.83706C5.74555 6.33832 6.1525 6.74429 6.65358 6.74429C7.15458 6.74419 7.56064 6.33825 7.56081 5.83706C7.56081 5.33573 7.15469 4.92896 6.65358 4.92886V3.72866L6.86843 3.74038C7.9314 3.84813 8.76101 4.74561 8.76101 5.83706C8.76084 7.00093 7.81739 7.94439 6.65358 7.94448C5.48969 7.94448 4.54633 7.00099 4.54616 5.83706C4.54616 4.67299 5.48959 3.72866 6.65358 3.72866V4.92886C6.1524 4.92886 5.74538 5.33567 5.74538 5.83706Z" fill="currentColor"/> </svg>

<!-- Component Set: edit -->
<!-- edit.svg -->
<svg width="16" height="16" viewBox="0 0 18 18" fill="none" xmlns="http://www.w3.org/2000/svg"> <path d="M13.6945 4.65086L8.36991 13.8747L4.6089 15.6961L4.3055 11.5278L9.63009 2.30392L13.6945 4.65086ZM5.42765 11.7833L5.58828 13.9995L7.58756 13.0305L12.1925 5.05332L10.0326 3.80611L5.42765 11.7833Z" fill="currentColor"/> <path d="M8.93697 4.61204L12.0492 6.40917L11.6283 7.13845L8.51599 5.34131L8.93697 4.61204Z" fill="currentColor"/> </svg>

<!-- Component Set: trash -->
<!-- trash.svg -->
<svg width="16" height="16" viewBox="0 0 18 18" fill="none" xmlns="http://www.w3.org/2000/svg"> <path d="M13.6705 3.10726V15.7069H4.32769V3.10726H13.6705ZM5.52691 14.5077H12.4703V4.30648H5.52691V14.5077Z" fill="currentColor"/> <path d="M8.3758 12.6641C8.3757 12.9954 8.1075 13.2637 7.7762 13.2637C7.44489 13.2637 7.17669 12.9954 7.17659 12.6641V6.14947C7.17659 5.8181 7.44482 5.54986 7.7762 5.54986C8.10757 5.54986 8.3758 5.8181 8.3758 6.14947V12.6641Z" fill="currentColor"/> <path d="M10.8221 12.6641C10.822 12.9954 10.5538 13.2637 10.2225 13.2637C9.89118 13.2637 9.62298 12.9954 9.62288 12.6641V6.14947C9.62288 5.8181 9.89112 5.54986 10.2225 5.54986C10.5539 5.54986 10.8221 5.8181 10.8221 6.14947V12.6641Z" fill="currentColor"/> <path d="M14.6992 3.10726C15.0306 3.10727 15.2988 3.37551 15.2988 3.70687C15.2988 4.03823 15.0306 4.30647 14.6992 4.30648H3.29884C2.96747 4.30648 2.69923 4.03824 2.69923 3.70687C2.69923 3.3755 2.96747 3.10726 3.29884 3.10726H14.6992Z" fill="currentColor"/> <path d="M9.97342 2.29306C10.3048 2.29306 10.574 2.5613 10.574 2.89267C10.574 3.22404 10.3048 3.49228 9.97342 3.49228H8.18241C7.85104 3.49228 7.5828 3.22404 7.5828 2.89267C7.5828 2.5613 7.85104 2.29306 8.18241 2.29306H9.97342Z" fill="currentColor"/> </svg>

<!-- Component Set: settings -->
<!-- settings.svg -->
<svg width="16" height="16" viewBox="0 0 18 18" fill="none" xmlns="http://www.w3.org/2000/svg"> <path d="M10.5723 3H7.5332V4.33984C6.78711 4.57412 6.11838 4.98257 5.57422 5.51758L4.49512 4.90234L2.97559 7.5L4.18164 8.1875C4.13737 8.45178 4.1133 8.72315 4.11328 9C4.11328 9.4039 4.16344 9.7965 4.25586 10.1719L2.97754 10.9014L4.49609 13.5L5.8457 12.7295C6.3352 13.1437 6.90669 13.4634 7.5332 13.6602V15H10.5723V13.623C11.1559 13.4244 11.6896 13.1194 12.1504 12.7295L13.502 13.5L15.0215 10.9023L13.7393 10.1709C13.8316 9.79574 13.8828 9.40365 13.8828 9C13.8828 8.72342 13.8577 8.45251 13.8135 8.18848L15.0234 7.5L13.5039 4.90137L12.4219 5.51758C11.9045 5.00887 11.2744 4.61491 10.5723 4.37598V3ZM11.6719 3.64844C11.9784 3.80177 12.2695 3.98023 12.543 4.18164L12.96 3.94531L13.9043 3.40723L16.5352 7.90527L14.9775 8.79102C14.9801 8.86018 14.9824 8.92986 14.9824 9L14.9717 9.36914C14.9669 9.44521 14.9578 9.52056 14.9502 9.5957L16.5322 10.498L13.9023 14.9941L12.2236 14.0381C12.0459 14.152 11.8618 14.2566 11.6719 14.3516V16.0996H6.43359V14.4053C6.20425 14.2962 5.98337 14.1732 5.77148 14.0371L4.0957 14.9951L1.4668 10.4971L2.43262 9.94629L3.04492 9.5957C3.02529 9.39979 3.01367 9.20118 3.01367 9L3.01758 8.79004L2.43066 8.45605L1.46484 7.9043L4.09473 3.4082L5.45312 4.18164C5.75891 3.95635 6.08678 3.75951 6.43359 3.59473V1.90039H11.6719V3.64844Z" fill="currentColor"/> <path d="M11.3563 9.00014C11.3562 7.76778 10.419 6.75391 9.21856 6.63197L8.9754 6.61928C7.66079 6.61928 6.59456 7.68549 6.59454 9.00014C6.59454 10.3148 7.66075 11.381 8.9754 11.381V12.4806C7.05324 12.4806 5.49493 10.9223 5.49493 9.00014C5.49496 7.078 7.05325 5.51967 8.9754 5.51967C10.8974 5.51982 12.4558 7.07809 12.4559 9.00014C12.4559 10.9222 10.8974 12.4805 8.9754 12.4806V11.381C10.29 11.3808 11.3563 10.3146 11.3563 9.00014Z" fill="currentColor"/> </svg>

<!-- Component Set: link -->
<!-- link.svg -->
<svg width="16" height="16" viewBox="0 0 18 18" fill="none" xmlns="http://www.w3.org/2000/svg"> <path d="M4.32232 9.24703L6.11351 7.45572C6.34781 7.2214 6.72714 7.2214 6.96145 7.45572C7.19576 7.69004 7.19576 8.0694 6.96145 8.30373L5.17027 10.095C4.41531 10.85 4.41538 12.0746 5.17027 12.8296C5.92526 13.5847 7.14969 13.5847 7.90469 12.8296L9.69587 11.0383C9.9301 10.8041 10.3095 10.8042 10.5438 11.0383C10.7781 11.2727 10.7788 11.6527 10.5445 11.887L8.75332 13.6783C7.52972 14.902 5.54524 14.902 4.32163 13.6783C3.09813 12.4546 3.09875 10.4707 4.32232 9.24703Z" fill="currentColor"/> <path d="M13.6781 8.75236L11.8869 10.5437C11.6526 10.778 11.2733 10.778 11.039 10.5437C10.8047 10.3093 10.8047 9.92998 11.039 9.69566L12.8301 7.90435C13.5851 7.14934 13.585 5.92479 12.8301 5.16974C12.0752 4.41469 10.8507 4.41469 10.0957 5.16974L8.30455 6.96105C8.07031 7.1953 7.69093 7.19516 7.4566 6.96105C7.2223 6.72672 7.22161 6.34667 7.45591 6.11235L9.2471 4.32104C10.4707 3.09735 12.4552 3.09735 13.6788 4.32104C14.9023 5.54474 14.9017 7.5287 13.6781 8.75236Z" fill="currentColor"/> <path d="M7.01063 10.1427L9.6974 7.45572C9.93171 7.2214 10.311 7.2214 10.5453 7.45572C10.7797 7.69004 10.7797 8.0694 10.5453 8.30373L7.85857 10.9907C7.62427 11.225 7.24425 11.2257 7.00994 10.9914C6.77563 10.7571 6.77632 10.377 7.01063 10.1427Z" fill="currentColor"/> </svg>

<!-- Component Set: more -->
<!-- more.svg -->
<svg width="16" height="16" viewBox="0 0 18 18" fill="none" xmlns="http://www.w3.org/2000/svg"> <path d="M10.5 4.5C10.5 5.32843 9.82843 6 9 6C8.17157 6 7.5 5.32843 7.5 4.5C7.5 3.67157 8.17157 3 9 3C9.82843 3 10.5 3.67157 10.5 4.5Z" fill="currentColor"/> <path d="M10.5 9C10.5 9.82843 9.82843 10.5 9 10.5C8.17157 10.5 7.5 9.82843 7.5 9C7.5 8.17157 8.17157 7.5 9 7.5C9.82843 7.5 10.5 8.17157 10.5 9Z" fill="currentColor"/> <path d="M10.5 13.5C10.5 14.3284 9.82843 15 9 15C8.17157 15 7.5 14.3284 7.5 13.5C7.5 12.6716 8.17157 12 9 12C9.82843 12 10.5 12.6716 10.5 13.5Z" fill="currentColor"/> </svg>

<!-- Component Set: logout -->
<!-- logout.svg -->
<svg width="16" height="16" viewBox="0 0 18 18" fill="none" xmlns="http://www.w3.org/2000/svg"> <path d="M10.1264 5.4375C10.1262 5.76876 9.85806 6.03711 9.52676 6.03711C9.19547 6.03711 8.92728 5.76876 8.92716 5.4375V4.09961L4.20352 4.09961L4.20352 13.9004H8.92715V12.4883C8.9273 12.157 9.19548 11.8887 9.52676 11.8887C9.85805 11.8887 10.1262 12.157 10.1264 12.4883V15.0996H3.00333L3.00333 2.90039L10.1264 2.90039V5.4375Z" fill="currentColor"/> <path d="M11.2008 6.65722C10.9761 6.41386 10.9909 6.03438 11.234 5.80957C11.4774 5.58491 11.8569 5.59962 12.0817 5.84277L14.9967 9L12.0817 12.1572C11.8569 12.4004 11.4774 12.4151 11.234 12.1904C10.9909 11.9656 10.9761 11.5861 11.2008 11.3428L13.3629 9L11.2008 6.65722Z" fill="currentColor"/> <path d="M13.7574 9.59961L6.98782 9.59961C6.65645 9.59961 6.38821 9.33137 6.38821 9C6.38821 8.66863 6.65645 8.40039 6.98782 8.40039L13.7574 8.40039C14.0887 8.40039 14.357 8.66863 14.357 9C14.357 9.33137 14.0887 9.59961 13.7574 9.59961Z" fill="currentColor"/> </svg>

<!-- Component Set: login -->
<!-- login.svg -->
<svg width="16" height="16" viewBox="0 0 18 18" fill="none" xmlns="http://www.w3.org/2000/svg"> <path d="M11.7151 5.4375C11.7149 5.76876 11.4467 6.03711 11.1154 6.03711C10.7842 6.03711 10.516 5.76876 10.5158 5.4375V4.09961L4.9465 4.09961L4.9465 13.9004H10.5158V12.4883C10.516 12.157 10.7842 11.8887 11.1154 11.8887C11.4467 11.8887 11.7149 12.157 11.7151 12.4883V15.0996H3.74631L3.74631 2.90039L11.7151 2.90039V5.4375Z" fill="currentColor"/> <path d="M9.44147 11.3437C9.66612 11.587 9.65141 11.9665 9.40827 12.1913C9.1649 12.416 8.78542 12.4013 8.56062 12.1581L5.64558 9.0009L8.56062 5.84367C8.78542 5.60053 9.1649 5.58582 9.40827 5.81047C9.65141 6.03527 9.66612 6.41475 9.44147 6.65812L7.27937 9.0009L9.44147 11.3437Z" fill="currentColor"/> <path d="M6.88463 8.40039H13.6542C13.9855 8.40039 14.2538 8.66863 14.2538 9C14.2538 9.33137 13.9855 9.59961 13.6542 9.59961H6.88463C6.55343 9.59942 6.28502 9.33125 6.28502 9C6.28502 8.66875 6.55343 8.40058 6.88463 8.40039Z" fill="currentColor"/> </svg>

<!-- Component Set: zoom-in -->
<!-- zoom-in.svg -->
<svg width="16" height="16" viewBox="0 0 18 18" fill="none" xmlns="http://www.w3.org/2000/svg"> <path d="M11.3529 11.7126C11.5907 11.482 11.9708 11.4876 12.2015 11.7253L14.972 14.5827C15.2027 14.8206 15.1972 15.2007 14.9593 15.4313C14.7215 15.662 14.3414 15.6563 14.1107 15.4187L11.3402 12.5612C11.1096 12.3234 11.1152 11.9433 11.3529 11.7126Z" fill="currentColor"/> <path d="M12.8322 8.14152C12.8319 5.6152 10.8509 3.59864 8.44543 3.59855C6.03989 3.59855 4.05797 5.61514 4.05774 8.14152C4.05774 10.6681 6.03975 12.6845 8.44543 12.6845C10.851 12.6844 12.8322 10.668 12.8322 8.14152ZM14.0323 8.14152C14.0323 11.2957 11.5483 13.8846 8.44543 13.8847C5.34247 13.8847 2.85852 11.2958 2.85852 8.14152C2.85875 4.98748 5.34261 2.39933 8.44543 2.39933C11.5482 2.39942 14.0321 4.98753 14.0323 8.14152Z" fill="currentColor"/> <path d="M10.6635 7.54121C10.9948 7.54121 11.264 7.80945 11.264 8.14082C11.264 8.47219 10.9948 8.74043 10.6635 8.74043H6.23085C5.89948 8.74043 5.63124 8.47219 5.63124 8.14082C5.63124 7.80945 5.89948 7.54121 6.23085 7.54121H10.6635Z" fill="currentColor"/> <path d="M7.84148 10.426V5.85474C7.84148 5.52337 8.10972 5.25513 8.44109 5.25513C8.77246 5.25513 9.0407 5.52337 9.0407 5.85474V10.426C9.0407 10.7574 8.77246 11.0266 8.44109 11.0266C8.10972 11.0266 7.84148 10.7574 7.84148 10.426Z" fill="currentColor"/> </svg>

<!-- Component Set: download -->
<!-- download.svg -->
<svg width="16" height="16" viewBox="0 0 18 18" fill="none" xmlns="http://www.w3.org/2000/svg"> <path d="M3.50897 10.8998C3.50897 10.5684 3.77721 10.3002 4.10858 10.3002C4.43995 10.3002 4.70819 10.5684 4.70819 10.8998V13.2953H13.2922V10.8998C13.2922 10.5684 13.5614 10.3002 13.8928 10.3002C14.2241 10.3003 14.4924 10.5685 14.4924 10.8998V14.4945H3.50897V10.8998Z" fill="currentColor"/> <path d="M11.5912 7.14451C11.8246 6.90927 12.2046 6.9082 12.4398 7.14158C12.675 7.37495 12.6771 7.75496 12.4437 7.99021L9.05212 11.4082L5.66052 7.99021C5.42721 7.75504 5.42842 7.37498 5.66345 7.14158C5.89862 6.90827 6.27868 6.90948 6.51208 7.14451L9.05114 9.70408L11.5912 7.14451Z" fill="currentColor"/> <path d="M8.44972 10.5274V4.10556C8.44972 3.77419 8.71796 3.50595 9.04933 3.50595C9.3807 3.50595 9.64894 3.77419 9.64894 4.10556V10.5274C9.64894 10.8588 9.3807 11.128 9.04933 11.128C8.71796 11.128 8.44972 10.8588 8.44972 10.5274Z" fill="currentColor"/> </svg>

<!-- Component Set: close -->
<!-- close.svg -->
<svg width="16" height="16" viewBox="0 0 18 18" fill="none" xmlns="http://www.w3.org/2000/svg"> <path d="M4.5737 4.57594C4.80782 4.34166 5.18791 4.34107 5.42233 4.57496L13.4282 12.5759C13.6624 12.8102 13.6624 13.1902 13.4282 13.4246C13.1939 13.6586 12.8138 13.6587 12.5796 13.4246L4.57467 5.42457C4.34039 5.19045 4.33981 4.81036 4.5737 4.57594Z" fill="currentColor"/> <path d="M12.5747 4.57594C12.809 4.34162 13.189 4.34162 13.4233 4.57594C13.6571 4.81016 13.6571 5.18937 13.4233 5.4236L5.42233 13.4246C5.18811 13.6584 4.80889 13.6584 4.57467 13.4246C4.34036 13.1903 4.34036 12.8103 4.57467 12.5759L12.5747 4.57594Z" fill="currentColor"/> </svg>

<!-- Component Set: burger -->
<!-- burger.svg -->
<svg width="16" height="16" viewBox="0 0 18 18" fill="none" xmlns="http://www.w3.org/2000/svg"> <path d="M14.5176 4.23535C14.8489 4.23535 15.1172 4.50359 15.1172 4.83496C15.1172 5.16633 14.8489 5.43457 14.5176 5.43457H3.48242C3.15105 5.43457 2.88281 5.16633 2.88281 4.83496C2.88281 4.50359 3.15105 4.23535 3.48242 4.23535H14.5176Z" fill="currentColor"/> <path d="M14.5176 8.40014C14.8489 8.40014 15.1172 8.66838 15.1172 8.99975C15.1172 9.33112 14.8489 9.59936 14.5176 9.59936H3.48242C3.15105 9.59936 2.88281 9.33112 2.88281 8.99975C2.88281 8.66838 3.15105 8.40014 3.48242 8.40014H14.5176Z" fill="currentColor"/> <path d="M14.5176 12.5649C14.8489 12.5649 15.1172 12.8332 15.1172 13.1645C15.1172 13.4959 14.8489 13.7641 14.5176 13.7641H3.48242C3.15105 13.7641 2.88281 13.4959 2.88281 13.1645C2.88281 12.8332 3.15105 12.5649 3.48242 12.5649H14.5176Z" fill="currentColor"/> </svg>

<!-- Component Set: extern -->
<!-- extern.svg -->
<svg width="12" height="12" viewBox="0 0 12 12" fill="none" xmlns="http://www.w3.org/2000/svg"> <path d="M9.61234 1.60571C9.82993 1.39415 10.1779 1.39913 10.3897 1.61645C10.6015 1.83413 10.5976 2.18292 10.3799 2.39478L5.98733 6.66919C5.76965 6.88104 5.42087 6.87613 5.20901 6.65845C4.99746 6.44084 5.00242 6.09291 5.21976 5.8811L9.61234 1.60571Z" fill="currentColor"/> <path d="M9.45049 5.66626V2.55005H6.16826C5.8645 2.55005 5.61846 2.304 5.61846 2.00024C5.61846 1.69649 5.8645 1.45044 6.16826 1.45044H10.5501V5.66626C10.5501 5.97002 10.304 6.21606 10.0003 6.21606C9.69658 6.21602 9.45049 5.96999 9.45049 5.66626Z" fill="currentColor"/> <path d="M4.33203 2.49621C4.6356 2.49643 4.88184 2.74239 4.88184 3.04601C4.88184 3.34963 4.6356 3.5956 4.33203 3.59582H2.55078V9.44933H8.4502V7.73644C8.4502 7.43281 8.69642 7.18685 9 7.18664C9.30376 7.18664 9.55078 7.43269 9.55078 7.73644V10.5499H1.45117V2.49621H4.33203Z" fill="currentColor"/> </svg>

<!-- Component Set: check -->
<!-- check.svg -->
<svg width="16" height="16" viewBox="0 0 18 18" fill="none" xmlns="http://www.w3.org/2000/svg"> <path d="M15.53 3.14098C15.7363 2.88787 16.1145 2.84606 16.3737 3.0475C16.6329 3.24904 16.6757 3.61839 16.4695 3.87161L7.33957 15.08L1.61984 10.5074C1.36342 10.3023 1.32596 9.93275 1.53586 9.6823C1.74578 9.43223 2.12332 9.39548 2.37961 9.60027L7.15695 13.4194L15.53 3.14098Z" fill="currentColor"/> </svg>

<!-- Component Set: add_image -->
<!-- add-image.svg -->
<svg width="17" height="18" viewBox="0 0 17 18" fill="none" xmlns="http://www.w3.org/2000/svg"> <path d="M9.62646 9.58467C10.2859 8.66152 11.6701 8.69864 12.2788 9.65596L14.9487 13.8542L13.936 14.4987L11.2661 10.2995C11.1139 10.0603 10.7678 10.0512 10.603 10.2819L8.71533 12.9255L8.22705 12.5759L7.73877 12.2272L9.62646 9.58467Z" fill="currentColor"/> <path d="M4.7251 10.8112C5.32876 10.2604 6.25034 10.2535 6.86279 10.7946L10.5474 14.0495L10.1499 14.4987L9.75244 14.9489L6.06885 11.6931C5.91571 11.5578 5.68459 11.5602 5.53369 11.6979L2.3042 14.6462L1.8999 14.2028L1.49561 13.7604L4.7251 10.8112Z" fill="currentColor"/> <path d="M7.84377 7.60965C7.84377 8.14569 7.40053 8.58024 6.85377 8.58024C6.30701 8.58024 5.86377 8.14569 5.86377 7.60965C5.86377 7.07361 6.30701 6.63906 6.85377 6.63906C7.40053 6.63906 7.84377 7.07361 7.84377 7.60965Z" fill="currentColor"/> <path d="M10.6997 2.90039C11.0311 2.90039 11.3003 3.16863 11.3003 3.5C11.3003 3.83137 11.0311 4.09961 10.6997 4.09961H2.49951V13.9004H14.4995V7.90039C14.4995 7.56902 14.7687 7.2998 15.1001 7.2998C15.4314 7.29991 15.6997 7.56908 15.6997 7.90039V15.0996H1.30029V2.90039H10.6997Z" fill="currentColor"/> <path d="M15.0987 4.46631C15.3748 4.46645 15.5987 4.69025 15.5987 4.96631C15.5987 5.24236 15.3748 5.46617 15.0987 5.46631H12.1651C11.889 5.46631 11.6651 5.24245 11.6651 4.96631C11.6651 4.69017 11.889 4.46631 12.1651 4.46631H15.0987Z" fill="currentColor"/> <path d="M13.1347 6.43359V3.5C13.1347 3.22386 13.3585 3 13.6347 3C13.9108 3 14.1347 3.22386 14.1347 3.5V6.43359C14.1345 6.70962 13.9107 6.93359 13.6347 6.93359C13.3586 6.93359 13.1348 6.70962 13.1347 6.43359Z" fill="currentColor"/> </svg>

<!-- Component Set: share -->
<!-- share.svg -->
<svg width="16" height="16" viewBox="0 0 18 18" fill="none" xmlns="http://www.w3.org/2000/svg"> <path d="M6.67712 8.64189C6.67712 8.03876 6.18812 7.55019 5.58533 7.55009C4.98244 7.55009 4.49354 8.03869 4.49353 8.64189C4.49353 9.24508 4.98244 9.73368 5.58533 9.73368V10.9339L5.35095 10.9222C4.19523 10.8049 3.29333 9.82866 3.29333 8.64189C3.29334 7.37605 4.3196 6.34989 5.58533 6.34989L5.8197 6.36161C6.97524 6.47909 7.87731 7.45525 7.87732 8.64189L7.86462 8.87626C7.74724 10.0319 6.77184 10.9338 5.58533 10.9339V9.73368C6.18813 9.73358 6.67712 9.24502 6.67712 8.64189Z" fill="currentColor"/> <path d="M13.5047 5.07712C13.5047 4.474 13.0157 3.98543 12.4129 3.98533C11.81 3.98533 11.3211 4.47393 11.3211 5.07712C11.3211 5.68032 11.81 6.16892 12.4129 6.16892V7.36912L12.1785 7.3574C11.0228 7.24009 10.1209 6.2639 10.1209 5.07712C10.1209 3.81129 11.1471 2.78513 12.4129 2.78513L12.6472 2.79685C13.8028 2.91433 14.7049 3.89048 14.7049 5.07712L14.6922 5.3115C14.5748 6.46716 13.5994 7.36902 12.4129 7.36912V6.16892C13.0157 6.16882 13.5047 5.68026 13.5047 5.07712Z" fill="currentColor"/> <path d="M13.5047 12.9225C13.5047 12.3194 13.0157 11.8308 12.4129 11.8307C11.81 11.8307 11.3211 12.3193 11.3211 12.9225C11.3211 13.5257 11.81 14.0143 12.4129 14.0143V15.2145L12.1785 15.2028C11.0228 15.0855 10.1209 14.1093 10.1209 12.9225C10.1209 11.6567 11.1471 10.6305 12.4129 10.6305L12.6472 10.6422C13.8028 10.7597 14.7049 11.7359 14.7049 12.9225L14.6922 13.1569C14.5748 14.3125 13.5994 15.2144 12.4129 15.2145V14.0143C13.0157 14.0142 13.5047 13.5256 13.5047 12.9225Z" fill="currentColor"/> <path d="M7.50212 8.79047L6.86021 7.77636L10.4354 5.51293L11.0773 6.52704L7.50212 8.79047Z" fill="currentColor"/> <path d="M6.82323 10.1394L7.57294 9.20219L11.1386 12.055L10.3889 12.9922L6.82323 10.1394Z" fill="currentColor"/> </svg>

<!-- Component Set: chevron-down -->
<!-- chevron-down.svg -->
<svg width="16" height="16" viewBox="0 0 18 18" fill="none" xmlns="http://www.w3.org/2000/svg"> <path d="M14.5049 5.35984C14.7783 5.08647 15.2218 5.08647 15.4951 5.35984C15.7685 5.63321 15.7685 6.07671 15.4951 6.35008L9.00001 12.8452L2.50489 6.35008C2.23152 6.07671 2.23152 5.63321 2.50489 5.35984C2.77826 5.08647 3.22176 5.08647 3.49513 5.35984L9.00001 10.8647L14.5049 5.35984Z" fill="currentColor"/> </svg>

<!-- Component Set: plus -->
<!-- plus.svg -->
<svg width="16" height="16" viewBox="0 0 18 18" fill="none" xmlns="http://www.w3.org/2000/svg"> <path d="M2.74221 9.00246C2.7421 8.67125 3.01045 8.40207 3.3416 8.4017L14.6601 8.39824C14.9914 8.39824 15.2601 8.66701 15.2602 8.99832C15.26 9.32943 14.9913 9.59828 14.6601 9.59839L3.34298 9.60184C3.01177 9.60196 2.74259 9.33361 2.74221 9.00246Z" fill="currentColor"/> <path d="M8.39976 3.34492C8.39976 3.01354 8.66846 2.74484 8.99983 2.74484C9.33079 2.74512 9.59893 3.01327 9.59921 3.34423V14.6593C9.59893 14.9903 9.33079 15.2584 8.99983 15.2587C8.66846 15.2587 8.39976 14.99 8.39976 14.6586V3.34492Z" fill="currentColor"/> </svg>

<!-- Component Set: 24x24_home -->
<!-- 24x24-home.svg -->
<svg width="24" height="23" viewBox="0 0 24 23" fill="none" xmlns="http://www.w3.org/2000/svg"> <path d="M2.72245 13.6634C2.44886 13.4366 2.42424 13.0463 2.66744 12.7912L12 3L21.3326 12.7912C21.5758 13.0463 21.5511 13.4366 21.2775 13.6634C21.004 13.8901 20.5854 13.8672 20.3422 13.612L12 4.86106L3.65776 13.612C3.41457 13.8672 2.99605 13.8901 2.72245 13.6634Z" fill="currentColor"/> <path d="M5.26191 10.6263C5.26191 10.285 5.55823 10.0086 5.92429 10.0086C6.29034 10.0086 6.58666 10.285 6.58666 10.6263V18.7647H17.4133V10.6263C17.4133 10.285 17.7097 10.0086 18.0757 10.0086C18.4418 10.0086 18.7381 10.285 18.7381 10.6263V20H5.26191V10.6263Z" fill="currentColor"/> </svg>

<!-- Component Set: chevron-right -->
<!-- chevron-right.svg -->
<svg width="16" height="16" viewBox="0 0 18 18" fill="none" xmlns="http://www.w3.org/2000/svg"> <path d="M5.35981 3.49512C5.08644 3.22175 5.08644 2.77825 5.35981 2.50488C5.63318 2.23152 6.07668 2.23152 6.35004 2.50488L12.8452 9L6.35005 15.4951C6.07668 15.7685 5.63318 15.7685 5.35981 15.4951C5.08644 15.2218 5.08644 14.7783 5.35981 14.5049L10.8647 9L5.35981 3.49512Z" fill="currentColor"/> </svg>

<!-- Component Set: chevron-left -->
<!-- chevron-left.svg -->
<svg width="16" height="16" viewBox="0 0 18 18" fill="none" xmlns="http://www.w3.org/2000/svg"> <path d="M12.6402 14.5049C12.9135 14.7783 12.9135 15.2218 12.6402 15.4951C12.3668 15.7685 11.9233 15.7685 11.6499 15.4951L5.15481 9L11.6499 2.50488C11.9233 2.23152 12.3668 2.23152 12.6402 2.50488C12.9135 2.77825 12.9135 3.22175 12.6402 3.49512L7.13528 9L12.6402 14.5049Z" fill="currentColor"/> </svg>

<!-- Component Set: import -->
<!-- import.svg -->
<svg width="16" height="16" viewBox="0 0 18 18" fill="none" xmlns="http://www.w3.org/2000/svg"> <path d="M3.50897 10.8998C3.50897 10.5684 3.77721 10.3002 4.10858 10.3002C4.43995 10.3002 4.70819 10.5684 4.70819 10.8998V13.2953H13.2922V10.8998C13.2922 10.5684 13.5614 10.3002 13.8928 10.3002C14.2241 10.3003 14.4924 10.5685 14.4924 10.8998V14.4945H3.50897V10.8998Z" fill="currentColor"/> <path d="M6.51267 7.76962C6.27928 8.00486 5.89928 8.00593 5.66403 7.77255C5.4288 7.53919 5.42678 7.15917 5.66013 6.92392L9.05173 3.50595L12.4433 6.92392C12.6766 7.15909 12.6754 7.53915 12.4404 7.77255C12.2052 8.00587 11.8252 8.00465 11.5918 7.76963L9.0527 5.21005L6.51267 7.76962Z" fill="currentColor"/> <path d="M9.65413 4.3867L9.65413 10.8086C9.65413 11.1399 9.38589 11.4082 9.05452 11.4082C8.72314 11.4082 8.45491 11.1399 8.45491 10.8086L8.45491 4.3867C8.45491 4.05532 8.72315 3.78611 9.05452 3.78611C9.38589 3.78611 9.65413 4.05532 9.65413 4.3867Z" fill="currentColor"/> </svg>

<!-- Component Set: print -->
<!-- print.svg -->
<svg width="16" height="16" viewBox="0 0 18 18" fill="none" xmlns="http://www.w3.org/2000/svg"> <path d="M12.2013 2.45C12.5049 2.45014 12.7511 2.69614 12.7511 2.9998V5.40019H11.6515V3.54961H6.35072V5.40019H5.25111V2.9998C5.25111 2.69605 5.49715 2.45 5.80091 2.45H12.2013Z" fill="currentColor"/> <path d="M15.9505 4.84964V12.3496H13.2669V11.2491H14.8499V5.94925H3.14969V11.2491H4.73367V12.3496H2.05008V4.84964H15.9505Z" fill="currentColor"/> <path d="M13.0006 8.85012C13.3044 8.85012 13.5504 9.09616 13.5504 9.39992V14.9995C13.5504 15.3033 13.3044 15.5503 13.0006 15.5503H5.00059C4.69684 15.5503 4.45079 15.3033 4.45079 14.9995V9.39992C4.45079 9.09616 4.69684 8.85012 5.00059 8.85012H13.0006ZM5.5504 14.4497H12.4508V9.94973H5.5504V14.4497Z" fill="currentColor"/> <path d="M11.1339 11.0338C11.4101 11.0338 11.6339 11.2576 11.6339 11.5338C11.6339 11.8099 11.4101 12.0338 11.1339 12.0338H6.86732C6.59117 12.0338 6.36732 11.8099 6.36732 11.5338C6.36732 11.2576 6.59117 11.0338 6.86732 11.0338H11.1339Z" fill="currentColor"/> <path d="M11.1339 12.632C11.4101 12.632 11.6339 12.8559 11.6339 13.132C11.6339 13.4082 11.4101 13.632 11.1339 13.632H6.86732C6.59117 13.632 6.36732 13.4082 6.36732 13.132C6.36732 12.8559 6.59117 12.632 6.86732 12.632H11.1339Z" fill="currentColor"/> </svg>
