<svg width="16" height="16" viewBox="0 0 18 18" fill="none" xmlns="http://www.w3.org/2000/svg"> <path d="M13.6705 3.10726V15.7069H4.32769V3.10726H13.6705ZM5.52691 14.5077H12.4703V4.30648H5.52691V14.5077Z" fill="currentColor"/> <path d="M8.3758 12.6641C8.3757 12.9954 8.1075 13.2637 7.7762 13.2637C7.44489 13.2637 7.17669 12.9954 7.17659 12.6641V6.14947C7.17659 5.8181 7.44482 5.54986 7.7762 5.54986C8.10757 5.54986 8.3758 5.8181 8.3758 6.14947V12.6641Z" fill="currentColor"/> <path d="M10.8221 12.6641C10.822 12.9954 10.5538 13.2637 10.2225 13.2637C9.89118 13.2637 9.62298 12.9954 9.62288 12.6641V6.14947C9.62288 5.8181 9.89112 5.54986 10.2225 5.54986C10.5539 5.54986 10.8221 5.8181 10.8221 6.14947V12.6641Z" fill="currentColor"/> <path d="M14.6992 3.10726C15.0306 3.10727 15.2988 3.37551 15.2988 3.70687C15.2988 4.03823 15.0306 4.30647 14.6992 4.30648H3.29884C2.96747 4.30648 2.69923 4.03824 2.69923 3.70687C2.69923 3.3755 2.96747 3.10726 3.29884 3.10726H14.6992Z" fill="currentColor"/> <path d="M9.97342 2.29306C10.3048 2.29306 10.574 2.5613 10.574 2.89267C10.574 3.22404 10.3048 3.49228 9.97342 3.49228H8.18241C7.85104 3.49228 7.5828 3.22404 7.5828 2.89267C7.5828 2.5613 7.85104 2.29306 8.18241 2.29306H9.97342Z" fill="currentColor"/> </svg>
