<svg width="16" height="16" viewBox="0 0 18 18" fill="none" xmlns="http://www.w3.org/2000/svg"> <path d="M11.3529 11.7126C11.5907 11.482 11.9708 11.4876 12.2015 11.7253L14.972 14.5827C15.2027 14.8206 15.1972 15.2007 14.9593 15.4313C14.7215 15.662 14.3414 15.6563 14.1107 15.4187L11.3402 12.5612C11.1096 12.3234 11.1152 11.9433 11.3529 11.7126Z" fill="currentColor"/> <path d="M12.8322 8.14152C12.8319 5.6152 10.8509 3.59864 8.44543 3.59855C6.03989 3.59855 4.05797 5.61514 4.05774 8.14152C4.05774 10.6681 6.03975 12.6845 8.44543 12.6845C10.851 12.6844 12.8322 10.668 12.8322 8.14152ZM14.0323 8.14152C14.0323 11.2957 11.5483 13.8846 8.44543 13.8847C5.34247 13.8847 2.85852 11.2958 2.85852 8.14152C2.85875 4.98748 5.34261 2.39933 8.44543 2.39933C11.5482 2.39942 14.0321 4.98753 14.0323 8.14152Z" fill="currentColor"/> <path d="M10.6635 7.54121C10.9948 7.54121 11.264 7.80945 11.264 8.14082C11.264 8.47219 10.9948 8.74043 10.6635 8.74043H6.23085C5.89948 8.74043 5.63124 8.47219 5.63124 8.14082C5.63124 7.80945 5.89948 7.54121 6.23085 7.54121H10.6635Z" fill="currentColor"/> <path d="M7.84148 10.426V5.85474C7.84148 5.52337 8.10972 5.25513 8.44109 5.25513C8.77246 5.25513 9.0407 5.52337 9.0407 5.85474V10.426C9.0407 10.7574 8.77246 11.0266 8.44109 11.0266C8.10972 11.0266 7.84148 10.7574 7.84148 10.426Z" fill="currentColor"/> </svg>
